<?xml version="1.0" encoding="UTF-8" standalone="no"?>
<svg version="1.1" xmlns="http://www.w3.org/2000/svg" xmlns:xlink="http://www.w3.org/1999/xlink" xmlns:sketch="http://www.bohemiancoding.com/sketch/ns">

	<symbol viewBox="0 0 92 92" id="svg-document-edit">
        <path d="M86.1,9.2L79,1.9C78.4,1.3,77.6,1,76.8,1h0c-0.8,0-1.6,0.3-2.1,0.9L32.8,44.4c-0.3,0.3-0.5,0.6-0.7,1
        l-4.7,11.9c-0.4,1.1-0.2,2.4,0.7,3.2c0.6,0.6,1.3,0.9,2.1,0.9c0.4,0,0.7-0.1,1.1-0.2l11.8-4.7c0.4-0.2,0.7-0.4,1-0.7l41.9-42.5
        C87.3,12.2,87.3,10.3,86.1,9.2z M40.4,51.2l-4.8,1.9l1.9-4.9L76.8,8.3l3,3L40.4,51.2z M71,47.6V88c0,2.2-2,4-4.2,4H10
        c-2.2,0-4-1.8-4-4V11.8C6,9.6,7.8,8,10,8h41.6c2.2,0,4,1.8,4,4s-1.8,4-4,4H14v68h49V47.6c0-2.2,1.8-4,4-4S71,45.4,71,47.6z"/>
	</symbol>

        <symbol viewBox="0 0 612 612" id="svg-delivery-truck">
        <path d="M21.474,377.522V117.138c0-14.469,11.729-26.199,26.199-26.199h260.25c14.469,0,26.198,11.73,26.198,26.199v260.385
        c0,4.823-3.909,8.733-8.733,8.733H30.207C25.383,386.256,21.474,382.346,21.474,377.522z M231.634,466.724
        c0,30.01-24.329,54.338-54.338,54.338c-30.009,0-54.338-24.328-54.338-54.338c0-30.011,24.329-54.338,54.338-54.338
        C207.305,412.386,231.634,436.713,231.634,466.724z M204.464,466.724c0-15.005-12.164-27.169-27.169-27.169
        s-27.17,12.164-27.17,27.169s12.165,27.17,27.17,27.17S204.464,481.729,204.464,466.724z M130.495,412.385H8.733
        c-4.823,0-8.733,3.91-8.733,8.733v26.495c0,4.823,3.91,8.733,8.733,8.733h97.598C108.879,438.862,117.704,423.418,130.495,412.385z
                M515.938,466.724c0,30.01-24.329,54.338-54.338,54.338c-30.01,0-54.338-24.328-54.338-54.338
        c0-30.011,24.328-54.338,54.338-54.338C491.609,412.385,515.938,436.713,515.938,466.724z M488.77,466.724
        c0-15.005-12.165-27.169-27.17-27.169c-15.006,0-27.169,12.164-27.169,27.169s12.164,27.17,27.169,27.17
        S488.77,481.729,488.77,466.724z M612,421.118v26.495c0,4.823-3.91,8.733-8.733,8.733h-70.704
        c-5.057-34.683-34.906-61.427-70.961-61.427c-36.062,0-65.912,26.745-70.969,61.427H248.261
        c-2.549-17.483-11.373-32.928-24.164-43.961h134.994V162.594c0-9.646,7.82-17.466,17.466-17.466h82.445
        c23.214,0,44.911,11.531,57.9,30.77l53.15,78.721c7.796,11.547,11.962,25.161,11.962,39.094v118.672h21.253
        C608.09,412.385,612,416.295,612,421.118z M523.408,256.635l-42.501-60.393c-1.636-2.324-4.3-3.707-7.142-3.707H407.47
        c-4.822,0-8.733,3.91-8.733,8.733v60.393c0,4.824,3.91,8.733,8.733,8.733h108.798C523.342,270.394,527.48,262.421,523.408,256.635z
        "/>
	</symbol>

        <symbol viewBox="0 0 446.843 446.843" id="svg-shopping-cart">
        <path d="M444.09,93.103c-2.698-3.699-7.006-5.888-11.584-5.888H109.92c-0.625,0-1.249,0.038-1.85,0.119l-13.276-38.27
        c-1.376-3.958-4.406-7.113-8.3-8.646L19.586,14.134c-7.374-2.887-15.695,0.735-18.591,8.1c-2.891,7.369,0.73,15.695,8.1,18.591
        l60.768,23.872l74.381,214.399c-3.283,1.144-6.065,3.663-7.332,7.187l-21.506,59.739c-1.318,3.663-0.775,7.733,1.468,10.916
        c2.24,3.183,5.883,5.078,9.773,5.078h11.044c-6.844,7.616-11.044,17.646-11.044,28.675c0,23.718,19.298,43.012,43.012,43.012
        s43.012-19.294,43.012-43.012c0-11.029-4.2-21.059-11.044-28.675h93.776c-6.847,7.616-11.048,17.646-11.048,28.675
        c0,23.718,19.294,43.012,43.013,43.012c23.718,0,43.012-19.294,43.012-43.012c0-11.029-4.2-21.059-11.043-28.675h13.433
        c6.599,0,11.947-5.349,11.947-11.948c0-6.599-5.349-11.947-11.947-11.947H143.647l13.319-36.996
        c1.72,0.724,3.578,1.152,5.523,1.152h210.278c6.234,0,11.751-4.027,13.65-9.959l59.739-186.387
        C447.557,101.567,446.788,96.802,444.09,93.103z M169.659,409.807c-10.543,0-19.116-8.573-19.116-19.116
        s8.573-19.117,19.116-19.117s19.116,8.574,19.116,19.117S180.202,409.807,169.659,409.807z M327.367,409.807
        c-10.543,0-19.117-8.573-19.117-19.116s8.574-19.117,19.117-19.117c10.542,0,19.116,8.574,19.116,19.117
        S337.909,409.807,327.367,409.807z M402.52,148.149h-73.161V115.89h83.499L402.52,148.149z M381.453,213.861h-52.094v-37.038
        h63.967L381.453,213.861z M234.571,213.861v-37.038h66.113v37.038H234.571z M300.684,242.538v31.064h-66.113v-31.064H300.684z
                M139.115,176.823h66.784v37.038h-53.933L139.115,176.823z M234.571,148.149V115.89h66.113v32.259H234.571z M205.898,115.89v32.259
        h-76.734l-11.191-32.259H205.898z M161.916,242.538h43.982v31.064h-33.206L161.916,242.538z M329.359,273.603v-31.064h42.909
        l-9.955,31.064H329.359z
        "/>
        </symbol>

        <symbol viewBox="0 0 60 60" id="svg-calculator">
        <path d="M50.586,0H9.414C7.807,0,6.5,1.308,6.5,2.914v54.172C6.5,58.692,7.807,60,9.414,60h41.172c1.607,0,2.914-1.308,2.914-2.914
        V2.914C53.5,1.308,52.193,0,50.586,0z M51.5,57.086C51.5,57.59,51.09,58,50.586,58H9.414C8.91,58,8.5,57.59,8.5,57.086V2.914
        C8.5,2.41,8.91,2,9.414,2h41.172C51.09,2,51.5,2.41,51.5,2.914V57.086z"/>
	<path d="M11.5,55h11V44h-11V55z M13.5,46h7v7h-7V46z"/>
	<path d="M24.5,55h11V44h-11V55z M26.5,46h7v7h-7V46z"/>
	<path d="M37.5,55h11V31h-11V55z M39.5,33h7v20h-7V33z"/>
	<path d="M11.5,42h11V31h-11V42z M13.5,33h7v7h-7V33z"/>
	<path d="M24.5,42h11V31h-11V42z M26.5,33h7v7h-7V33z"/>
	<path d="M11.5,29h11V18h-11V29z M13.5,20h7v7h-7V20z"/>
	<path d="M24.5,29h11V18h-11V29z M26.5,20h7v7h-7V20z"/>
	<path d="M37.5,29h11V18h-11V29z M39.5,20h7v7h-7V20z"/>
	<path d="M11.5,15h37V5h-37V15z M13.5,7h33v6h-33V7z"/>
	</symbol>

        <symbol viewBox="0 0 334.877 334.877" id="svg-wallet">
        <path d="M333.196,155.999h-16.067V82.09c0-17.719-14.415-32.134-32.134-32.134h-21.761L240.965,9.917
        C237.571,3.798,231.112,0,224.107,0c-3.265,0-6.504,0.842-9.364,2.429l-85.464,47.526H33.815
        c-17.719,0-32.134,14.415-32.134,32.134v220.653c0,17.719,14.415,32.134,32.134,32.134h251.18
        c17.719,0,32.134-14.415,32.134-32.134v-64.802h16.067V155.999z M284.995,62.809c9.897,0,17.982,7.519,19.068,17.14h-24.152
        l-9.525-17.14H284.995z M220.996,13.663c3.014-1.69,7.07-0.508,8.734,2.494l35.476,63.786H101.798L220.996,13.663z
                M304.275,302.742c0,10.63-8.651,19.281-19.281,19.281H33.815c-10.63,0-19.281-8.651-19.281-19.281V82.09
        c0-10.63,8.651-19.281,19.281-19.281h72.353L75.345,79.95H37.832c-3.554,0-6.427,2.879-6.427,6.427s2.873,6.427,6.427,6.427h14.396
        h234.83h17.217v63.201h-46.999c-21.826,0-39.589,17.764-39.589,39.589v2.764c0,21.826,17.764,39.589,39.589,39.589h46.999V302.742z
                M320.342,225.087h-3.213h-59.853c-14.743,0-26.736-11.992-26.736-26.736v-2.764c0-14.743,11.992-26.736,26.736-26.736h59.853
        h3.213V225.087z M276.961,197.497c0,7.841-6.35,14.19-14.19,14.19c-7.841,0-14.19-6.35-14.19-14.19s6.35-14.19,14.19-14.19
        C270.612,183.306,276.961,189.662,276.961,197.497z"/>
	</symbol>

        <symbol viewBox="0 0 297 297" id="svg-profil-1">
        <path d="M148.51,117.216c32.317,0,58.608-26.291,58.608-58.608S180.827,0,148.51,0c-32.317,0-58.608,26.291-58.608,58.608   S116.193,117.216,148.51,117.216z"/>
        <path d="m227.154,145.618c-0.025-0.008-0.073-0.026-0.098-0.032-7.631-1.864-30.999-5.133-30.999-5.133-2.638-0.812-5.457,0.585-6.406,3.188l-35.174,96.509c-2.029,5.567-9.903,5.567-11.932,0l-35.174-96.509c-0.766-2.102-2.75-3.42-4.876-3.42-0.504,0-24.531,3.369-32.53,5.358-21.858,5.435-35.645,26.929-35.645,49.329v80.302c0,12.034 9.756,21.79 21.79,21.79h184.782c12.034,0 21.79-9.756 21.79-21.79v-80.569c-0.001-22.303-14.328-42.096-35.528-49.023z"/>
        <path d="m161.775,138.613c-1.404-1.53-3.456-2.299-5.532-2.299h-15.485c-2.076,0-4.129,0.77-5.532,2.299-2.173,2.368-2.489,5.789-0.946,8.462l8.278,12.479-3.875,32.69 7.631,20.3c0.744,2.042 3.631,2.042 4.375,0l7.631-20.3-3.875-32.69 8.278-12.479c1.541-2.673 1.225-6.094-0.948-8.462z"/>
	</symbol>

        <symbol viewBox="0 0 377.283 377.283" id="svg-history">
        <rect x="97.183" y="226.232" width="181.32" height="7.501"/>
        <rect x="97.183" y="247.347" width="181.32" height="7.501"/>
        <path d="M259.021,41.953h-28.426C230.595,18.785,211.809,0,188.641,0s-41.953,18.785-41.953,41.953h-30.024v49.178h142.356V41.953
                z M138.45,74.424c-4.413,0-7.992-3.579-7.992-7.992s3.579-7.992,7.992-7.992c4.413,0,7.992,3.579,7.992,7.992
                C146.437,70.845,142.863,74.424,138.45,74.424z M170.737,41.953c0-9.871,8.033-17.905,17.905-17.905
                c9.871,0,17.905,8.033,17.905,17.905H170.737z M237.844,74.424c-4.413,0-7.992-3.579-7.992-7.992s3.579-7.992,7.992-7.992
                s7.992,3.579,7.992,7.992S242.258,74.424,237.844,74.424z"/>
        <rect x="97.183" y="268.462" width="181.32" height="7.501"/>
        <rect x="97.183" y="141.773" width="181.32" height="7.501"/>
        <rect x="97.183" y="120.658" width="181.32" height="7.501"/>
        <polygon points="271.903,58.307 271.903,73.835 306.171,73.835 306.171,302.331 247.296,302.331 247.296,361.206 255.314,353.188 
                255.314,310.344 298.158,310.344 298.813,309.688 247.301,361.206 247.296,361.206 71.112,361.206 71.112,73.835 105.38,73.835 
                105.38,58.307 54.968,58.307 54.968,377.283 320.712,377.283 320.712,73.835 322.314,73.835 322.314,58.307 		"/>
        <rect x="97.183" y="205.117" width="181.32" height="7.501"/>
        <rect x="97.183" y="184.003" width="181.32" height="7.501"/>
        <rect x="97.183" y="162.888" width="181.32" height="7.501"/>
	</symbol>

        <symbol viewBox="0 0 509.054 509.054" id="svg-list">
        <path d="M75.377,0H45.111L6.284,36.258l20.268,21.7c7.994-7.041,12.753-12.185,14.277-15.417H41.4v3.427
                c0,7.613-0.05,19.126-0.144,34.545c-0.096,15.417-0.144,27.027-0.144,34.831H10.562v28.266h95.646v-28.266H75.377V0z"/>
        <path d="M505.489,73.232c-1.816-1.809-3.952-2.712-6.43-2.712H151.886c-2.474,0-4.611,0.903-6.423,2.712
                c-1.805,1.809-2.708,3.949-2.708,6.424v54.817c0,2.475,0.9,4.615,2.708,6.424c1.812,1.807,3.949,2.712,6.423,2.712h347.176
                c2.478,0,4.617-0.905,6.427-2.712c1.808-1.809,2.707-3.949,2.707-6.424V79.656C508.2,77.182,507.297,75.041,505.489,73.232z"/>
        <path d="M73.664,420.834l27.123-32.833v-25.125H5.712v43.396h30.262V391.14c3.046,0,7.661-0.086,13.85-0.277
                c6.182-0.195,10.8-0.288,13.846-0.288v0.288c-3.621,3.426-7.139,7.087-10.566,10.992c-3.427,3.904-7.471,9.041-12.135,15.409
                c-4.661,6.379-7.751,10.521-9.275,12.423l7.421,15.988c19.985-1.526,29.979,3.802,29.979,15.988c0,5.328-2.046,9.373-6.139,12.128
                c-4.089,2.766-8.897,4.145-14.417,4.145c-10.848,0-20.937-4.281-30.262-12.85L1.998,490.211
                c12.562,12.562,28.931,18.843,49.109,18.843c15.416,0,28.31-4.374,38.688-13.131c10.373-8.758,15.559-20.749,15.559-35.974
                c0-9.709-2.859-18.083-8.562-25.129C91.08,427.784,83.375,423.116,73.664,420.834z"/>
        <path d="M75.942,298.066h-36.26c0.193-4.76,3.571-9.756,10.138-14.985c6.567-5.232,13.747-10.037,21.555-14.417
                c7.801-4.381,14.939-10.514,21.412-18.412c6.472-7.9,9.707-16.608,9.707-26.125c0-13.515-4.757-24.222-14.273-32.121
                c-9.514-7.898-21.223-11.849-35.117-11.849c-11.042,0-21.083,2.712-30.124,8.138c-9.04,5.424-15.843,12.991-20.412,22.701
                l24.27,16.844c6.663-11.042,14.371-16.56,23.125-16.56c4.762,0,8.52,1.285,11.281,3.854c2.757,2.574,4.141,6.235,4.141,10.994
                c0,4.377-2.238,8.66-6.711,12.847c-4.475,4.187-9.851,8.326-16.134,12.419c-6.28,4.093-12.563,8.615-18.842,13.563
                c-6.28,4.949-11.661,11.417-16.134,19.411c-4.471,7.994-6.708,16.847-6.708,26.553c0,3.425,0.571,8.565,1.711,15.417H105.92
                v-45.402v-0.004H75.942V298.066z"/>
        <path d="M499.06,362.876H151.886c-2.663,0-4.853,0.858-6.563,2.569c-1.713,1.712-2.568,3.901-2.568,6.564v54.819
                c0,2.475,0.9,4.616,2.708,6.423c1.812,1.808,3.949,2.711,6.423,2.711h347.176c2.478,0,4.617-0.896,6.427-2.711
                c1.808-1.807,2.707-3.948,2.707-6.423V372.01c0-2.471-0.906-4.613-2.707-6.42C503.676,363.782,501.537,362.876,499.06,362.876z"/>
        <path d="M499.06,216.698H151.886c-2.663,0-4.853,0.855-6.563,2.568c-1.713,1.713-2.568,3.903-2.568,6.567v54.818
                c0,2.475,0.9,4.613,2.708,6.424c1.812,1.81,3.949,2.714,6.423,2.714h347.176c2.478,0,4.617-0.904,6.427-2.714
                c1.808-1.811,2.707-3.949,2.707-6.424v-54.818c0-2.474-0.906-4.615-2.707-6.423C503.676,217.602,501.537,216.698,499.06,216.698z"
                />
	</symbol>

        <symbol viewBox="0 0 475.084 475.085" id="svg-cart">
        <path d="M365.446,401.998c0,10.092,3.579,18.702,10.711,25.834c7.132,7.139,15.749,10.711,25.845,10.711
                c10.081,0,18.698-3.572,25.83-10.711c7.139-7.132,10.711-15.742,10.711-25.834s-3.568-18.702-10.711-25.841
                c-7.132-7.132-15.749-10.704-25.83-10.704c-10.096,0-18.713,3.572-25.845,10.704C369.025,383.296,365.446,391.906,365.446,401.998
                z"/>
        <path d="M469.658,78.51c-3.618-3.617-7.898-5.426-12.848-5.426H113.918c-0.193-1.331-0.621-3.756-1.287-7.277
                c-0.666-3.523-1.188-6.329-1.569-8.425c-0.383-2.087-1.093-4.611-2.142-7.561c-1.047-2.952-2.284-5.286-3.711-6.995
                c-1.425-1.718-3.328-3.189-5.708-4.43c-2.378-1.233-5.092-1.853-8.136-1.853H18.276c-4.952,0-9.234,1.812-12.85,5.424
                C1.809,45.583,0,49.868,0,54.816s1.809,9.231,5.426,12.847c3.619,3.617,7.902,5.424,12.85,5.424h58.237l50.532,234.976
                c-0.378,0.76-2.329,4.373-5.852,10.848c-3.521,6.475-6.328,12.135-8.42,16.988c-2.093,4.859-3.14,8.616-3.14,11.279
                c0,4.948,1.809,9.232,5.424,12.854c3.621,3.606,7.902,5.421,12.851,5.421h18.272h255.815h18.261c4.948,0,9.232-1.814,12.847-5.421
                c3.62-3.621,5.427-7.905,5.427-12.854c0-4.949-1.807-9.233-5.427-12.847c-3.614-3.614-7.898-5.428-12.847-5.428h-262.66
                c4.57-9.138,6.854-15.222,6.854-18.268c0-1.909-0.238-4.004-0.715-6.283s-1.047-4.805-1.713-7.569
                c-0.667-2.752-1.093-4.799-1.283-6.133l298.077-34.831c4.753-0.575,8.658-2.614,11.703-6.14c3.046-3.518,4.565-7.562,4.565-12.133
                V91.363C475.082,86.415,473.278,82.132,469.658,78.51z"/>
        <path d="M109.632,401.998c0,10.092,3.567,18.702,10.706,25.834c7.141,7.139,15.75,10.711,25.841,10.711
                c10.085,0,18.699-3.572,25.835-10.711c7.139-7.132,10.71-15.742,10.71-25.834s-3.568-18.702-10.71-25.841
                c-7.137-7.132-15.75-10.704-25.835-10.704c-10.09,0-18.704,3.572-25.841,10.704C113.203,383.296,109.632,391.906,109.632,401.998z
                "/>
	</symbol>

        <symbol viewBox="0 0 511.626 511.626" id="svg-envelope">
        <path d="M49.106,178.729c6.472,4.567,25.981,18.131,58.528,40.685c32.548,22.554,57.482,39.92,74.803,52.099
                c1.903,1.335,5.946,4.237,12.131,8.71c6.186,4.476,11.326,8.093,15.416,10.852c4.093,2.758,9.041,5.852,14.849,9.277
                c5.806,3.422,11.279,5.996,16.418,7.7c5.14,1.718,9.898,2.569,14.275,2.569h0.287h0.288c4.377,0,9.137-0.852,14.277-2.569
                c5.137-1.704,10.615-4.281,16.416-7.7c5.804-3.429,10.752-6.52,14.845-9.277c4.093-2.759,9.229-6.376,15.417-10.852
                c6.184-4.477,10.232-7.375,12.135-8.71c17.508-12.179,62.051-43.11,133.615-92.79c13.894-9.703,25.502-21.411,34.827-35.116
                c9.332-13.699,13.993-28.07,13.993-43.105c0-12.564-4.523-23.319-13.565-32.264c-9.041-8.947-19.749-13.418-32.117-13.418H45.679
                c-14.655,0-25.933,4.948-33.832,14.844C3.949,79.562,0,91.934,0,106.779c0,11.991,5.236,24.985,15.703,38.974
                C26.169,159.743,37.307,170.736,49.106,178.729z"/>
        <path d="M483.072,209.275c-62.424,42.251-109.824,75.087-142.177,98.501c-10.849,7.991-19.65,14.229-26.409,18.699
                c-6.759,4.473-15.748,9.041-26.98,13.702c-11.228,4.668-21.692,6.995-31.401,6.995h-0.291h-0.287
                c-9.707,0-20.177-2.327-31.405-6.995c-11.228-4.661-20.223-9.229-26.98-13.702c-6.755-4.47-15.559-10.708-26.407-18.699
                c-25.697-18.842-72.995-51.68-141.896-98.501C17.987,202.047,8.375,193.762,0,184.437v226.685c0,12.57,4.471,23.319,13.418,32.265
                c8.945,8.949,19.701,13.422,32.264,13.422h420.266c12.56,0,23.315-4.473,32.261-13.422c8.949-8.949,13.418-19.694,13.418-32.265
                V184.437C503.441,193.569,493.927,201.854,483.072,209.275z"/>
	</symbol>

        <symbol viewBox="0 0 299.995 299.995" id="svg-contacts">
        <path d="M149.992,0.001C67.156,0.001,0,67.159,0,149.998c0,82.837,67.156,149.997,149.992,149.997
                c82.842,0,150.003-67.161,150.003-149.997C299.995,67.159,232.834,0.001,149.992,0.001z M210.947,217.132v10.374
                c0,5.729-4.645,10.374-10.374,10.374h-10.374h-57.256H96.829c-11.458,0-20.749-9.29-20.749-20.749V86.592
                c0-11.458,9.29-20.749,20.749-20.749h36.113h57.256h10.374c5.729,0,10.374,4.645,10.374,10.374v10.375h0.001V217.132z
                        M231.695,86.592v130.54v10.374c0,5.729-4.645,10.374-10.374,10.374h-2.806c1.774-3.055,2.806-6.593,2.806-10.374v-10.374V86.592
                V76.219c0-3.781-1.032-7.319-2.806-10.374h2.806c5.729,0,10.374,4.645,10.374,10.374V86.592z"/>
        <path d="M175.591,165.517c0,0-3.909-4.692-8.237-1.455c-3.226,2.412-9.023,7.776-10.416,9.078c0,0-9.69-5.166-15.424-9.884
                c-8.494-6.985-14.174-15.608-17.151-20.513l-2.223-4.191c0.775-0.835,6.71-7.189,9.277-10.639
                c3.232-4.326-1.452-8.235-1.452-8.235s-13.183-13.183-16.184-15.798c-3.003-2.622-6.461-1.167-6.461-1.167
                c-6.315,4.082-12.859,7.628-13.248,24.686c-0.013,15.969,12.109,32.438,25.215,45.188c13.131,14.402,31.162,28.833,48.588,28.817
                c17.055-0.384,20.598-6.93,24.678-13.245c0,0,1.46-3.455-1.159-6.458C188.774,178.693,175.591,165.517,175.591,165.517z"/>
	</symbol>

        <symbol viewBox="0 0 487.222 487.222" id="svg-favorite">
        <path d="M486.554,186.811c-1.6-4.9-5.8-8.4-10.9-9.2l-152-21.6l-68.4-137.5c-2.3-4.6-7-7.5-12.1-7.5l0,0c-5.1,0-9.8,2.9-12.1,7.6
		l-67.5,137.9l-152,22.6c-5.1,0.8-9.3,4.3-10.9,9.2s-0.2,10.3,3.5,13.8l110.3,106.9l-25.5,151.4c-0.9,5.1,1.2,10.2,5.4,13.2
		c2.3,1.7,5.1,2.6,7.9,2.6c2.2,0,4.3-0.5,6.3-1.6l135.7-71.9l136.1,71.1c2,1,4.1,1.5,6.2,1.5l0,0c7.4,0,13.5-6.1,13.5-13.5
		c0-1.1-0.1-2.1-0.4-3.1l-26.3-150.5l109.6-107.5C486.854,197.111,488.154,191.711,486.554,186.811z M349.554,293.911
		c-3.2,3.1-4.6,7.6-3.8,12l22.9,131.3l-118.2-61.7c-3.9-2.1-8.6-2-12.6,0l-117.8,62.4l22.1-131.5c0.7-4.4-0.7-8.8-3.9-11.9
		l-95.6-92.8l131.9-19.6c4.4-0.7,8.2-3.4,10.1-7.4l58.6-119.7l59.4,119.4c2,4,5.8,6.7,10.2,7.4l132,18.8L349.554,293.911z"/>
	</symbol>

        <symbol viewBox="0 0 456.795 456.795" id="svg-viewed">
        <path d="M448.947,218.475c-0.922-1.168-23.055-28.933-61-56.81c-50.705-37.253-105.877-56.944-159.551-56.944
                c-53.672,0-108.844,19.691-159.551,56.944c-37.944,27.876-60.077,55.642-61,56.81L0,228.397l7.846,9.923
                c0.923,1.168,23.056,28.934,61,56.811c50.707,37.252,105.879,56.943,159.551,56.943c53.673,0,108.845-19.691,159.55-56.943
                c37.945-27.877,60.078-55.643,61-56.811l7.848-9.923L448.947,218.475z M228.396,315.039c-47.774,0-86.642-38.867-86.642-86.642
                c0-7.485,0.954-14.751,2.747-21.684l-19.781-3.329c-1.938,8.025-2.966,16.401-2.966,25.013c0,30.86,13.182,58.696,34.204,78.187
                c-27.061-9.996-50.072-24.023-67.439-36.709c-21.516-15.715-37.641-31.609-46.834-41.478c9.197-9.872,25.32-25.764,46.834-41.478
                c17.367-12.686,40.379-26.713,67.439-36.71l13.27,14.958c15.498-14.512,36.312-23.412,59.168-23.412
                c47.774,0,86.641,38.867,86.641,86.642C315.037,276.172,276.17,315.039,228.396,315.039z M368.273,269.875
                c-17.369,12.686-40.379,26.713-67.439,36.709c21.021-19.49,34.203-47.326,34.203-78.188s-13.182-58.697-34.203-78.188
                c27.061,9.997,50.07,24.024,67.439,36.71c21.516,15.715,37.641,31.609,46.834,41.477
                C405.91,238.269,389.787,254.162,368.273,269.875z"/>
        <path d="M173.261,211.555c-1.626,5.329-2.507,10.982-2.507,16.843c0,31.834,25.807,57.642,57.642,57.642
                c31.834,0,57.641-25.807,57.641-57.642s-25.807-57.642-57.641-57.642c-15.506,0-29.571,6.134-39.932,16.094l28.432,32.048
                L173.261,211.555z"/>
	</symbol>

        <symbol viewBox="0 0 97.668 97.667" id="svg-subscribe">
        <path d="M12.639,72.389C5.67,72.389,0,78.059,0,85.028s5.67,12.638,12.639,12.638c6.969,0,12.639-5.669,12.639-12.638
                S19.607,72.389,12.639,72.389z"/>
        <path d="M2.102,36.384c-0.545-0.013-1.066,0.184-1.457,0.562c-0.39,0.377-0.609,0.896-0.609,1.438v16.217
                c0,1.068,0.841,1.948,1.909,1.998c21.334,0.973,38.156,17.795,39.129,39.129c0.049,1.067,0.929,1.908,1.998,1.908H59.29
                c0.542,0,1.062-0.22,1.438-0.608s0.578-0.916,0.562-1.457c-0.517-15.548-6.888-30.197-17.938-41.248
                C32.3,43.272,17.651,36.902,2.102,36.384z"/>
        <path d="M69.053,28.62C51.119,10.688,27.334,0.524,2.076,0.004c-0.54-0.026-1.058,0.194-1.44,0.571
                C0.252,0.952,0.035,1.466,0.035,2.003v16.208c0,1.085,0.865,1.972,1.95,2c40.601,1.02,74.458,34.878,75.476,75.475
                c0.025,1.085,0.914,1.949,1.999,1.949h16.208c0.537,0,1.053-0.216,1.43-0.601c0.375-0.384,0.582-0.903,0.57-1.441
                C97.146,70.334,86.982,46.548,69.053,28.62z"/>
	</symbol>

</svg>
